HIERARCHY
ROOT Hips
{
  OFFSET 3.307450 112.704000 -1.230760
  CHANNELS 6 Xposition Yposition Zposition Zrotation Xrotation Yrotation
  JOINT LeftUpLeg
  {
    OFFSET 10.594100 -7.046800 6.113700
    CHANNELS 6 Xposition Yposition Zposition Zrotation Xrotation Yrotation
    JOINT LeftLeg
    {
      OFFSET 1.202350 -46.194700 -0.690829
      CHANNELS 6 Xposition Yposition Zposition Zrotation Xrotation Yrotation
      JOINT LeftFoot
      {
        OFFSET -0.569770 -43.787100 1.218890
        CHANNELS 6 Xposition Yposition Zposition Zrotation Xrotation Yrotation
        JOINT LeftFootHeel
        {
          OFFSET -5.398440 -8.370720 -7.845880
          CHANNELS 6 Xposition Yposition Zposition Zrotation Xrotation Yrotation
          End Site
          {
            OFFSET 3.415870 0.000000 28.876000
          }
        }
        JOINT LeftHeelOutside
        {
          OFFSET 0.040859 -8.370720 -8.163310
          CHANNELS 6 Xposition Yposition Zposition Zrotation Xrotation Yrotation
          End Site
          {
            OFFSET 2.307530 0.000000 28.164500
          }
        }
      }
    }
  }
  JOINT RightUpLeg
  {
    OFFSET -10.594100 -7.046800 6.113700
    CHANNELS 6 Xposition Yposition Zposition Zrotation Xrotation Yrotation
    JOINT RightLeg
    {
      OFFSET -1.202350 -46.194700 -0.690829
      CHANNELS 6 Xposition Yposition Zposition Zrotation Xrotation Yrotation
      JOINT RightFoot
      {
        OFFSET 0.569770 -43.787100 1.218890
        CHANNELS 6 Xposition Yposition Zposition Zrotation Xrotation Yrotation
        JOINT RightFootHeel
        {
          OFFSET 5.398440 -8.370720 -7.845880
          CHANNELS 6 Xposition Yposition Zposition Zrotation Xrotation Yrotation
          End Site
          {
            OFFSET -3.415870 0.000000 28.876000
          }
        }
        JOINT RightHeelOutside
        {
          OFFSET -0.040859 -8.370720 -8.163310
          CHANNELS 6 Xposition Yposition Zposition Zrotation Xrotation Yrotation
          End Site
          {
            OFFSET -2.307530 0.000000 28.164500
          }
        }
      }
    }
  }
  JOINT Spine
  {
    OFFSET 0.000000 9.941710 1.685460
    CHANNELS 6 Xposition Yposition Zposition Zrotation Xrotation Yrotation
    JOINT Spine1
    {
      OFFSET 0.000000 11.798200 2.528190
      CHANNELS 6 Xposition Yposition Zposition Zrotation Xrotation Yrotation
      JOINT LeftShoulder
      {
        OFFSET 9.604760 16.636000 2.480700
        CHANNELS 6 Xposition Yposition Zposition Zrotation Xrotation Yrotation
        JOINT LeftArm
        {
          OFFSET 8.721320 -2.032930 -0.166911
          CHANNELS 6 Xposition Yposition Zposition Zrotation Xrotation Yrotation
          JOINT LeftForeArm
          {
            OFFSET 1.643330 -31.080500 -1.731440
            CHANNELS 6 Xposition Yposition Zposition Zrotation Xrotation Yrotation
            JOINT LeftHand
            {
              OFFSET 1.692920 -28.488600 -0.193187
              CHANNELS 6 Xposition Yposition Zposition Zrotation Xrotation Yrotation
              JOINT LeftPalm
              {
                OFFSET 0.000000 0.000000 0.000000
                CHANNELS 6 Xposition Yposition Zposition Zrotation Xrotation Yrotation
                                 JOINT LeftthumbA
                                  {
                                        OFFSET 3.400000 1.000000 -2.500000
                                        CHANNELS 6 Xposition Yposition Zposition Zrotation Xrotation Yrotation
                                        JOINT LeftthumbB
                                        {
                                          OFFSET 4.777030 0.000000 0.000000
                                          CHANNELS 6 Xposition Yposition Zposition Zrotation Xrotation Yrotation
                                          JOINT LeftthumbC
                                          {
                                                OFFSET 2.884440 0.000000 0.000000
                                                CHANNELS 6 Xposition Yposition Zposition Zrotation Xrotation Yrotation
                                                End Site
                                                {
                                                  OFFSET 0.000000 0.000000 0.000000
                                                }
                                          }
                                        }
                                  }
                                  JOINT LeftindexA
                                  {
                                        OFFSET 10.400000 0.000000 -2.600000
                                        CHANNELS 6 Xposition Yposition Zposition Zrotation Xrotation Yrotation
                                        JOINT LeftindexB
                                        {
                                          OFFSET 4.428320 0.000000 0.000000
                                          CHANNELS 6 Xposition Yposition Zposition Zrotation Xrotation Yrotation
                                          JOINT LeftindexC
                                          {
                                                OFFSET 2.611990 0.000000 0.000000
                                                CHANNELS 6 Xposition Yposition Zposition Zrotation Xrotation Yrotation
                                                End Site
                                                {
                                                  OFFSET 0.000000 0.000000 0.000000
                                                }
                                          }
                                        }
                                  }
                                  JOINT LeftmiddleA
                                  {
                                        OFFSET 10.600000 0.000000 0.000000
                                        CHANNELS 6 Xposition Yposition Zposition Zrotation Xrotation Yrotation
                                        JOINT LeftmiddleB
                                        {
                                          OFFSET 4.617360 0.000000 0.000000
                                          CHANNELS 6 Xposition Yposition Zposition Zrotation Xrotation Yrotation
                                          JOINT LeftmiddleC
                                          {
                                                OFFSET 3.010400 0.000000 0.000000
                                                CHANNELS 6 Xposition Yposition Zposition Zrotation Xrotation Yrotation
                                                End Site
                                                {
                                                  OFFSET 0.000000 0.000000 0.000000
                                                }
                                          }
                                        }
                                  }
                                  JOINT LeftringA
                                  {
                                        OFFSET 9.800000 0.000000 2.200000
                                        CHANNELS 6 Xposition Yposition Zposition Zrotation Xrotation Yrotation
                                        JOINT LeftringB
                                        {
                                          OFFSET 4.079220 0.000000 0.000000
                                          CHANNELS 6 Xposition Yposition Zposition Zrotation Xrotation Yrotation
                                          JOINT LeftringC
                                          {
                                                OFFSET 3.059410 0.000000 0.000000
                                                CHANNELS 6 Xposition Yposition Zposition Zrotation Xrotation Yrotation
                                                End Site
                                                {
                                                  OFFSET 0.000000 0.000000 0.000000
                                                }
                                          }
                                        }
                                  }
                                  JOINT LeftlittleA
                                  {
                                        OFFSET 8.600000 0.000000 4.200000
                                        CHANNELS 6 Xposition Yposition Zposition Zrotation Xrotation Yrotation
                                        JOINT LeftlittleB
                                        {
                                          OFFSET 3.130500 0.000000 0.000000
                                          CHANNELS 6 Xposition Yposition Zposition Zrotation Xrotation Yrotation
                                          JOINT LeftlittleC
                                          {
                                                OFFSET 2.214160 0.000000 0.000000
                                                CHANNELS 6 Xposition Yposition Zposition Zrotation Xrotation Yrotation
                                                End Site
                                                {
                                                  OFFSET 0.000000 0.000000 0.000000
                                                }
                                          }
                                        }
                                  }
		}
            }
          }
        }
      }
      JOINT RightShoulder
      {
        OFFSET -9.604760 16.636000 2.480700
        CHANNELS 6 Xposition Yposition Zposition Zrotation Xrotation Yrotation
        JOINT RightArm
        {
          OFFSET -8.721320 -2.032930 -0.166911
          CHANNELS 6 Xposition Yposition Zposition Zrotation Xrotation Yrotation
          JOINT RightForeArm
          {
            OFFSET -1.643330 -31.080500 -1.731440
            CHANNELS 6 Xposition Yposition Zposition Zrotation Xrotation Yrotation
            JOINT RightHand
            {
              OFFSET -1.692920 -28.488600 -0.193187
              CHANNELS 6 Xposition Yposition Zposition Zrotation Xrotation Yrotation
                          JOINT RightPalm
                          {
                            OFFSET 0.000000 0.000000 0.000000
                            CHANNELS 6 Xposition Yposition Zposition Zrotation Xrotation Yrotation
                              JOINT RightthumbA
                              {
                                    OFFSET 3.400000 1.000000 2.500000
                                    CHANNELS 6 Xposition Yposition Zposition Zrotation Xrotation Yrotation
                                    JOINT RightthumbB
                                    {
                                      OFFSET 4.777030 0.000000 0.000000
                                      CHANNELS 6 Xposition Yposition Zposition Zrotation Xrotation Yrotation
                                      JOINT RightthumbC
                                      {
                                            OFFSET 2.884440 0.000000 0.000000
                                            CHANNELS 6 Xposition Yposition Zposition Zrotation Xrotation Yrotation
                                            End Site
                                            {
                                              OFFSET 0.000000 0.000000 0.000000
                                            }
                                      }
                                    }
                              }
                              JOINT RightindexA
                              {
                                    OFFSET 10.400000 0.000000 2.600000
                                    CHANNELS 6 Xposition Yposition Zposition Zrotation Xrotation Yrotation
                                    JOINT RightindexB
                                    {
                                      OFFSET 4.428320 0.000000 0.000000
                                      CHANNELS 6 Xposition Yposition Zposition Zrotation Xrotation Yrotation
                                      JOINT RightindexC
                                      {
                                            OFFSET 2.611990 0.000000 0.000000
                                            CHANNELS 6 Xposition Yposition Zposition Zrotation Xrotation Yrotation
                                            End Site
                                            {
                                              OFFSET 0.000000 0.000000 0.000000
                                            }
                                      }
                                    }
                              }
                              JOINT RightmiddleA
                              {
                                    OFFSET 10.600000 0.000000 0.000000
                                    CHANNELS 6 Xposition Yposition Zposition Zrotation Xrotation Yrotation
                                    JOINT RightmiddleB
                                    {
                                      OFFSET 4.617360 0.000000 0.000000
                                      CHANNELS 6 Xposition Yposition Zposition Zrotation Xrotation Yrotation
                                      JOINT RightmiddleC
                                      {
                                            OFFSET 3.010400 0.000000 0.000000
                                            CHANNELS 6 Xposition Yposition Zposition Zrotation Xrotation Yrotation
                                            End Site
                                            {
                                              OFFSET 0.000000 0.000000 0.000000
                                            }
                                      }
                                    }
                              }
                              JOINT RightringA
                              {
                                    OFFSET 9.800000 0.000000 -2.200000
                                    CHANNELS 6 Xposition Yposition Zposition Zrotation Xrotation Yrotation
                                    JOINT RightringB
                                    {
                                      OFFSET 4.079220 0.000000 0.000000
                                      CHANNELS 6 Xposition Yposition Zposition Zrotation Xrotation Yrotation
                                      JOINT RightringC
                                      {
                                            OFFSET 3.059410 0.000000 0.000000
                                            CHANNELS 6 Xposition Yposition Zposition Zrotation Xrotation Yrotation
                                            End Site
                                            {
                                              OFFSET 0.000000 0.000000 0.000000
                                            }
                                      }
                                    }
                              }
                              JOINT RightlittleA
                              {
                                    OFFSET 8.600000 0.000000 -4.200000
                                    CHANNELS 6 Xposition Yposition Zposition Zrotation Xrotation Yrotation
                                    JOINT RightlittleB
                                    {
                                      OFFSET 3.130500 0.000000 0.000000
                                      CHANNELS 6 Xposition Yposition Zposition Zrotation Xrotation Yrotation
                                      JOINT RightlittleC
                                      {
                                            OFFSET 2.214160 0.000000 0.000000
                                            CHANNELS 6 Xposition Yposition Zposition Zrotation Xrotation Yrotation
                                            End Site
                                            {
                                              OFFSET 0.000000 0.000000 0.000000
                                            }
                                      }
                                    }
                              }
                        }
            }
          }
        }
      }
      JOINT Neck
      {
        OFFSET 0.000000 22.753700 3.090010
        CHANNELS 6 Xposition Yposition Zposition Zrotation Xrotation Yrotation
        JOINT Head
        {
          OFFSET 0.000000 11.351700 1.981750
          CHANNELS 6 Xposition Yposition Zposition Zrotation Xrotation Yrotation
          End Site
          {
            OFFSET 0.000000 12.831500 1.951020
          }
        }
      }
    }
  }
}
MOTION
Frames:	3
Frame Time:	0.03333333333
-1.62088	108.13	6.51911	-4.04055	-10.4162	148.992	10.5941	-7.0468	6.1137	6.06053e-07	-2.88407e-07	2.45139e-06	1.20235	-46.1947	-0.690829	6.06053e-07	-2.88407e-07	2.45139e-06	-0.56977	-43.7871	1.21889	6.06053e-07	-2.88407e-07	2.45139e-06	-5.39844	-8.37072	-7.84588	0.0	0.0	0.0	0.0408592	-8.37072	-8.16331	0.0	0.0	0.0	-10.5941	-7.0468	6.1137	6.06053e-07	-2.88407e-07	2.45139e-06	-1.20235	-46.1947	-0.690829	6.06053e-07	-2.88407e-07	2.45139e-06	0.56977	-43.7871	1.21889	6.06053e-07	-2.88407e-07	2.45139e-06	5.39844	-8.37072	-7.84588	0.0	0.0	0.0	-0.0408587	-8.37072	-8.16331	0.0	0.0	0.0	0.0	9.94171	1.68546	6.06053e-07	-2.88407e-07	2.45139e-06	0.0	11.7982	2.52819	0.759934	-1.39937	-9.90697	9.60476	16.636	2.4807	-1.70993	-0.432224	12.9345	8.72132	-2.03293	-0.166911	4.0168	-14.6061	-14.8641	1.64333	-31.0805	-1.73144	-4.88265	-52.5046	-17.5004	1.69292	-28.4886	-0.193187	24.2461	-12.9727	-66.3135	0.0	0.0	0.0	-81.00704	180.0	-3.1314	3.4	1.0	-2.5	-9.92748	65.7364	39.5232	4.77703	0.0	0.0	2.72995	23.2642	-1.07894	2.88444	0.0	0.0	12.2642	0.0	0.0	10.4	0.0	-2.6	-1.55045	-0.0417147	1.54081	4.42832	0.0	0.0	20.1106	-0.340683	-0.931573	2.61199	0.0	0.0	5.79944	0.0459305	0.467948	10.6	0.0	0.0	1.12478	-0.0848481	-4.34211	4.61736	0.0	0.0	12.4269	0.044561	0.194083	3.0104	0.0	0.0	6.714	-0.037356	-0.332573	9.8	0.0	2.2	-2.9909	0.401114	-7.63152	4.07922	0.0	0.0	18.2398	0.0	0.0	3.05941	0.0	0.0	8.39937	-0.246155	-1.66601	8.6	0.0	4.2	3.27461	-0.659999	-11.3837	3.1305	0.0	0.0	17.9054	0.355861	1.10127	2.21416	0.0	0.0	3.71572	-0.0750124	-1.15654	-9.60476	16.636	2.4807	-2.85625	0.0106884	15.3205	-8.72132	-2.03293	-0.166911	-0.99074	-8.72718	-14.2408	-1.64333	-31.0805	-1.73144	118.062	-47.4619	78.2213	-1.69292	-28.4886	-0.193187	-1.72682	-23.2004	-45.6876	0.0	0.0	0.0	-79.5247	0.0	-3.16356	3.4	1.0	2.5	-8.57266	-28.6499	-35.2351	4.77703	0.0	0.0	-8.33876	-45.3321	-5.95121	2.88444	0.0	0.0	4.28901	0.0	0.0	10.4	0.0	2.6	3.66018	-0.201243	-3.17034	4.42832	0.0	0.0	10.4736	0.180119	0.972287	2.61199	0.0	0.0	5.64363	-0.0417767	-0.442433	10.6	0.0	0.0	26.2228	1.79829	3.64546	4.61736	0.0	0.0	29.9127	-0.102892	-0.179256	3.0104	0.0	0.0	2.23413	0.0122874	0.341399	9.8	0.0	-2.2	10.9139	1.88207	9.66574	4.07922	0.0	0.0	15.3731	0.0	0.0	3.05941	0.0	0.0	0.296345	0.008716	1.6812	8.6	0.0	-4.2	4.7576	1.46135	17.0362	3.1305	0.0	0.0	14.1774	-0.283496	-1.12795	2.21416	0.0	0.0	6.80208	0.137093	1.14592	0.0	22.7537	3.09001	-4.25543	1.60821	8.57998	0.0	11.3517	1.98175	10.1372	-0.91236	5.25065	
-1.6706	108.115	6.49681	-4.02103	-10.4994	148.921	10.5941	-7.0468	6.1137	6.06053e-07	-2.88407e-07	2.45139e-06	1.20235	-46.1947	-0.690829	6.06053e-07	-2.88407e-07	2.45139e-06	-0.56977	-43.7871	1.21889	6.06053e-07	-2.88407e-07	2.45139e-06	-5.39844	-8.37072	-7.84588	0.0	0.0	0.0	0.0408592	-8.37072	-8.16331	0.0	0.0	0.0	-10.5941	-7.0468	6.1137	6.06053e-07	-2.88407e-07	2.45139e-06	-1.20235	-46.1947	-0.690829	6.06053e-07	-2.88407e-07	2.45139e-06	0.56977	-43.7871	1.21889	6.06053e-07	-2.88407e-07	2.45139e-06	5.39844	-8.37072	-7.84588	0.0	0.0	0.0	-0.0408587	-8.37072	-8.16331	0.0	0.0	0.0	0.0	9.94171	1.68546	6.06053e-07	-2.88407e-07	2.45139e-06	0.0	11.7982	2.52819	0.861577	-1.40615	-9.94171	9.60476	16.636	2.4807	-1.66861	-0.536826	12.8461	8.72132	-2.03293	-0.166911	3.86692	-14.4908	-14.6872	1.64333	-31.0805	-1.73144	-4.6748	-52.3251	-17.4988	1.69292	-28.4886	-0.193187	24.474	-13.1686	-65.9621	0.0	0.0	0.0	-82.97731	180.0	-2.71163	3.4	1.0	-2.5	-9.93809	65.8583	39.534	4.77703	0.0	0.0	2.72751	23.1396	-1.07252	2.88444	0.0	0.0	12.2642	0.0	0.0	10.4	0.0	-2.6	-1.48204	-0.0268563	1.03785	4.42832	0.0	0.0	20.1106	-0.340683	-0.930879	2.61199	0.0	0.0	5.79944	0.0459305	0.469709	10.6	0.0	0.0	1.30207	-0.0951677	-4.17624	4.61736	0.0	0.0	10.7118	0.038819	0.194207	3.0104	0.0	0.0	6.71399	-0.038562	-0.333225	9.8	0.0	2.2	-5.73248	0.75122	-7.4387	4.07922	0.0	0.0	14.4119	0.0	0.0	3.05941	0.0	0.0	10.2022	-0.298484	-1.66791	8.6	0.0	4.2	3.28069	-0.649005	-11.1916	3.1305	0.0	0.0	17.9054	0.355861	1.10127	2.21416	0.0	0.0	5.02454	-0.101376	-1.15838	-9.60476	16.636	2.4807	-2.78128	-0.144386	15.3373	-8.72132	-2.03293	-0.166911	-3.16972	-10.4383	-14.4367	-1.64333	-31.0805	-1.73144	121.164	-46.6321	81.5192	-1.69292	-28.4886	-0.193187	-2.00352	-22.3084	-44.2835	0.0	0.0	0.0	-78.496	0.0	-3.1143	3.4	1.0	2.5	-8.54172	-26.9752	-35.8091	4.77703	0.0	0.0	-6.02143	-46.8855	-4.40486	2.88444	0.0	0.0	4.28901	0.0	0.0	10.4	0.0	2.6	3.66073	-0.199247	-3.1774	4.42832	0.0	0.0	10.4736	0.180119	0.971925	2.61199	0.0	0.0	5.64364	-0.0412486	-0.442534	10.6	0.0	0.0	26.2263	1.79601	3.64083	4.61736	0.0	0.0	27.7142	-0.102489	-0.182194	3.0104	0.0	0.0	2.27995	0.00814833	0.34115	9.8	0.0	-2.2	10.9089	1.88503	9.68111	4.07922	0.0	0.0	15.5403	0.0	0.0	3.05941	0.0	0.0	0.296345	0.008716	1.6812	8.6	0.0	-4.2	2.64942	0.815478	17.0942	3.1305	0.0	0.0	12.5906	-0.252315	-1.13064	2.21416	0.0	0.0	6.80208	0.137093	1.14696	0.0	22.7537	3.09001	-4.23375	1.32314	8.43402	0.0	11.3517	1.98175	10.1672	-1.59787	5.28891	
-1.76003	108.086	6.46086	-3.97715	-10.6432	148.848	10.5941	-7.0468	6.1137	6.06053e-07	-2.88407e-07	2.45139e-06	1.20235	-46.1947	-0.690829	6.06053e-07	-2.88407e-07	2.45139e-06	-0.56977	-43.7871	1.21889	6.06053e-07	-2.88407e-07	2.45139e-06	-5.39844	-8.37072	-7.84588	0.0	0.0	0.0	0.0408592	-8.37072	-8.16331	0.0	0.0	0.0	-10.5941	-7.0468	6.1137	6.06053e-07	-2.88407e-07	2.45139e-06	-1.20235	-46.1947	-0.690829	6.06053e-07	-2.88407e-07	2.45139e-06	0.56977	-43.7871	1.21889	6.06053e-07	-2.88407e-07	2.45139e-06	5.39844	-8.37072	-7.84588	0.0	0.0	0.0	-0.0408587	-8.37072	-8.16331	0.0	0.0	0.0	0.0	9.94171	1.68546	6.06053e-07	-2.88407e-07	2.45139e-06	0.0	11.7982	2.52819	1.05193	-1.51099	-10.1275	9.60476	16.636	2.4807	-1.66088	-0.679932	12.6596	8.72132	-2.03293	-0.166911	3.7806	-14.0982	-14.4868	1.64333	-31.0805	-1.73144	-4.35454	-51.9269	-17.6311	1.69292	-28.4886	-0.193187	25.9297	-14.4092	-64.7648	0.0	0.0	0.0	-83.90618	180.0	-2.30561	3.4	1.0	-2.5	-9.79108	63.9968	39.4002	4.77703	0.0	0.0	2.76827	25.0418	-1.1725	2.88444	0.0	0.0	12.2642	0.0	0.0	10.4	0.0	-2.6	-1.48182	-0.0328173	1.26825	4.42832	0.0	0.0	20.1106	-0.340683	-0.930372	2.61199	0.0	0.0	5.89686	0.0467004	0.471459	10.6	0.0	0.0	-1.52189	0.113558	-4.26635	4.61736	0.0	0.0	9.05295	0.0323473	0.194344	3.0104	0.0	0.0	6.82921	-0.0401078	-0.33391	9.8	0.0	2.2	-5.65156	0.744949	-7.48516	4.07922	0.0	0.0	12.671	0.0	0.0	3.05941	0.0	0.0	10.2073	-0.298628	-1.66725	8.6	0.0	4.2	3.43819	-0.708202	-11.6575	3.1305	0.0	0.0	18.0711	0.359069	1.10031	2.21416	0.0	0.0	5.07034	-0.102299	-1.16011	-9.60476	16.636	2.4807	-2.64234	-0.436196	15.4354	-8.72132	-2.03293	-0.166911	-7.25141	-13.8344	-14.8491	-1.64333	-31.0805	-1.73144	126.337	-44.9598	86.6442	-1.69292	-28.4886	-0.193187	-1.50085	-21.1257	-41.3966	0.0	0.0	0.0	-78.5364	0.0	-3.56329	3.4	1.0	2.5	-8.54555	-27.1495	-35.7882	4.77703	0.0	0.0	-6.10428	-46.731	-4.45271	2.88444	0.0	0.0	4.28901	0.0	0.0	10.4	0.0	2.6	3.65972	-0.20071	-3.13538	4.42832	0.0	0.0	10.4736	0.180119	0.971469	2.61199	0.0	0.0	5.64364	-0.0410176	-0.442637	10.6	0.0	0.0	26.2204	1.83816	3.72646	4.61736	0.0	0.0	27.8043	-0.10153	-0.183667	3.0104	0.0	0.0	2.35234	0.00662865	0.340332	9.8	0.0	-2.2	10.9204	1.84035	9.44931	4.07922	0.0	0.0	13.9134	0.0	0.0	3.05941	0.0	0.0	0.296345	0.008716	1.6812	8.6	0.0	-4.2	2.73773	0.829638	16.8568	3.1305	0.0	0.0	12.653	-0.253541	-1.13177	2.21416	0.0	0.0	6.95254	0.140117	1.14769	0.0	22.7537	3.09001	-4.19461	0.89475	8.25152	0.0	11.3517	1.98175	10.1794	-2.96605	5.399	
